#!OML:ASF I:\Actors\actors\Patient Classification 2\Patient 1\Session 1\actor1.ASF
:FULLY-SPECIFIED
:DEGREES
693
root -1.15567 18.7674 6.57803 4.04878 14.9195 8.75637
lowerback 12.7821 -4.76549 19.693
upperback 2.50111 -3.59369 -0.200871
thorax -5.67014 -2.10549 -10.6667
lowerneck -13.496 0.989568 -7.75515
upperneck 26.1538 11.4761 -26.6983
head 12.8506 1.5258 -7.40272
rclavicle 3.4191e-014 -9.22361e-014
rhumerus -45.047 17.4554 -104.206
rradius 50.2358
rwrist 13.597
rhand 0.0153092 -58.6976
rfingers 7.12502
rthumb 25.605 -86.9962
lclavicle 3.4191e-014 -9.22361e-014
lhumerus -38.4974 -22.4363 99.9571
lradius 44.6718
lwrist -10.8065
lhand 18.0936 -13.6955
lfingers 7.12502
lthumb 42.7551 10.6364
rfemur 0 0 0
rtibia 0
rfoot 0 0
rtoes 0
lfemur -7.18944 0.705775 -20.7858
ltibia 20.4977
lfoot -8.4991 -5.49376
ltoes -56.4746
694
root -1.18254 18.7662 6.5716 3.96205 15.2457 8.72217
lowerback 12.8783 -4.79076 19.5331
upperback 2.53687 -3.64082 -0.353852
thorax -5.70034 -2.12844 -10.7386
lowerneck -13.4606 0.91699 -8.01888
upperneck 26.576 11.4949 -26.4519
head 12.9939 1.49131 -7.29025
rclavicle 4.29375e-014 -5.24792e-014
rhumerus -45.0403 17.8817 -104.671
rradius 49.7482
rwrist 14.5012
rhand -0.633808 -58.8448
rfingers 7.12502
rthumb 24.9832 -87.2314
lclavicle 4.29375e-014 -5.24792e-014
lhumerus -38.5778 -22.8757 99.7487
lradius 45.1228
lwrist -10.2302
lhand 18.5009 -13.1499
lfingers 7.12502
lthumb 43.1361 11.0477
rfemur 0 0 0
rtibia 0
rfoot 0 0
rtoes 0
lfemur -7.18157 0.459584 -20.6581
ltibia 20.5394
lfoot -8.45036 -5.49198
ltoes -56.6011
695
root -1.20657 18.7637 6.56934 3.76024 15.4245 8.65457
lowerback 13.0483 -4.81083 19.3918
upperback 2.6311 -3.66779 -0.505984
thorax -5.69952 -2.13458 -10.8232
lowerneck -13.422 0.839404 -8.15971
upperneck 26.9114 11.5135 -26.4202
head 13.1298 1.45798 -7.28774
rclavicle -8.74653e-015 3.18055e-014
rhumerus -44.9709 18.3454 -105.076
rradius 49.3332
rwrist 14.8849
rhand -0.826829 -59.0879
rfingers 7.12502
rthumb 24.7982 -87.5001
lclavicle -8.74653e-015 3.18055e-014
lhumerus -38.6022 -23.1746 99.5039
lradius 45.5266
lwrist -9.72086
lhand 18.7309 -12.7281
lfingers 7.12502
lthumb 43.351 11.3926
rfemur 0 0 0
rtibia 0
rfoot 0 0
rtoes 0
lfemur -7.02601 0.375335 -20.5042
ltibia 20.5674
lfoot -8.40128 -5.5518
ltoes -56.6896
696
root -1.22659 18.7596 6.5708 3.49452 15.4858 8.548
lowerback 13.2327 -4.79218 19.3093
upperback 2.7515 -3.63755 -0.688867
thorax -5.66299 -2.10944 -10.9897
lowerneck -13.2956 0.743484 -8.09593
upperneck 27.1896 11.4599 -26.5328
head 13.2322 1.41341 -7.39055
rclavicle -2.42517e-014 -3.97569e-014
rhumerus -44.8354 18.5664 -105.385
rradius 48.9895
rwrist 14.8207
rhand -0.454232 -59.109
rfingers 7.12502
rthumb 25.1552 -87.4716
lclavicle -2.42517e-014 -3.97569e-014
lhumerus -38.6734 -23.443 99.2183
lradius 45.9913
lwrist -9.30553
lhand 19.0368 -12.3609
lfingers 7.12502
lthumb 43.6367 11.6562
rfemur 0 0 0
rtibia 0
rfoot 0 0
rtoes 0
lfemur -6.79418 0.380643 -20.3206
ltibia 20.5939
lfoot -8.35592 -5.64731
ltoes -56.5961
697
root -1.24687 18.7564 6.57078 3.27287 15.5605 8.46388
lowerback 13.4163 -4.75693 19.1849
upperback 2.85966 -3.59084 -0.871734
thorax -5.63188 -2.07691 -11.1365
lowerneck -13.2176 0.636213 -8.11354
upperneck 27.486 11.3799 -26.5006
head 13.3303 1.35686 -7.41967
rclavicle -3.45885e-014 3.49861e-014
rhumerus -44.6856 18.7017 -105.66
rradius 48.6402
rwrist 14.7054
rhand -0.425445 -58.8126
rfingers 7.12502
rthumb 25.1828 -87.1713
lclavicle -3.45885e-014 3.49861e-014
lhumerus -38.7392 -23.6737 98.9316
lradius 46.5477
lwrist -8.83541
lhand 19.8112 -11.6727
lfingers 7.12502
lthumb 44.3592 12.0749
rfemur 0 0 0
rtibia 0
rfoot 0 0
rtoes 0
lfemur -6.6104 0.298722 -20.1608
ltibia 20.6163
lfoot -8.33286 -5.6673
ltoes -56.5341
698
root -1.26709 18.7534 6.57089 3.04699 15.651 8.35854
lowerback 13.5947 -4.72215 19.0598
upperback 2.9905 -3.54553 -1.0162
thorax -5.57014 -2.03968 -11.2393
lowerneck -13.3788 0.572423 -8.3508
upperneck 27.9333 11.4285 -26.1779
head 13.5322 1.32843 -7.27898
rclavicle 2.78299e-015 3.18055e-015
rhumerus -44.4903 18.8327 -105.83
rradius 48.3012
rwrist 14.7029
rhand -0.398676 -58.5062
rfingers 7.12502
rthumb 25.2085 -86.8612
lclavicle 2.78299e-015 3.18055e-015
lhumerus -38.7615 -23.8838 98.7001
lradius 47.1585
lwrist -8.22567
lhand 20.8166 -10.6945
lfingers 7.12502
lthumb 45.295 12.6879
rfemur 0 0 0
rtibia 0
rfoot 0 0
rtoes 0
lfemur -6.42462 0.15548 -19.9804
ltibia 20.6296
lfoot -8.3332 -5.62061
ltoes -56.5471
699
root -1.28537 18.7497 6.57237 2.78611 15.7319 8.28682
lowerback 13.7883 -4.69352 18.9198
upperback 3.14904 -3.51024 -1.16837
thorax -5.48858 -2.00323 -11.3404
lowerneck -13.5305 0.505416 -8.54926
upperneck 28.3364 11.4603 -25.9013
head 13.7179 1.29777 -7.16338
rclavicle 8.98507e-014 -5.725e-014
rhumerus -44.2646 19.0208 -105.975
rradius 47.9729
rwrist 14.7634
rhand -0.154534 -58.4622
rfingers 7.12502
rthumb 25.4423 -86.7841
lclavicle 8.98507e-014 -5.725e-014
lhumerus -38.7571 -24.0718 98.4997
lradius 47.6912
lwrist -7.81159
lhand 21.3434 -9.96515
lfingers 7.12502
lthumb 45.7844 13.2186
rfemur 0 0 0
rtibia 0
rfoot 0 0
rtoes 0
lfemur -6.18382 -0.00227471 -19.8429
ltibia 20.6527
lfoot -8.35069 -5.56531
ltoes -56.5111
700
root -1.30416 18.7462 6.57227 2.5351 15.7997 8.26707
lowerback 14.0498 -4.68061 18.714
upperback 3.28151 -3.49033 -1.34468
thorax -5.47748 -1.98194 -11.4252
lowerneck -13.4758 0.413023 -8.66584
upperneck 28.5487 11.3804 -25.7928
head 13.7749 1.2445 -7.13016
rclavicle 1.94809e-014 1.90833e-014
rhumerus -44.0436 19.3225 -106.218
rradius 47.5967
rwrist 14.7925
rhand -0.126235 -58.3864
rfingers 7.12502
rthumb 25.4695 -86.7044
lclavicle 1.94809e-014 1.90833e-014
lhumerus -38.8237 -24.1648 98.2627
lradius 48.1951
lwrist -7.57017
lhand 21.4562 -9.53539
lfingers 7.12502
lthumb 45.8891 13.6052
rfemur 0 0 0
rtibia 0
rfoot 0 0
rtoes 0
lfemur -5.95106 -0.0519796 -19.7551
ltibia 20.6843
lfoot -8.32057 -5.63518
ltoes -56.4387
701
root -1.32336 18.7437 6.5697 2.33463 15.8954 8.12669
lowerback 14.2725 -4.68187 18.5997
upperback 3.36813 -3.47817 -1.48543
thorax -5.50137 -1.97185 -11.5197
lowerneck -13.3584 0.34763 -8.79919
upperneck 28.7175 11.3087 -25.6592
head 13.7948 1.20398 -7.07456
rclavicle -3.97569e-016 0
rhumerus -43.8625 19.6431 -106.533
rradius 47.1971
rwrist 14.7841
rhand -0.44089 -58.2453
rfingers 7.12502
rthumb 25.168 -86.6061
lclavicle -3.97569e-016 0
lhumerus -39.0348 -24.2034 98.0236
lradius 48.8531
lwrist -7.23488
lhand 21.5097 -9.02592
lfingers 7.12502
lthumb 45.9388 14.094
rfemur 0 0 0
rtibia 0
rfoot 0 0
rtoes 0
lfemur -5.8137 -0.195382 -19.5501
ltibia 20.7054
lfoot -8.30085 -5.65731
ltoes -56.3429
702
root -1.3419 18.7418 6.56899 2.11598 15.9857 7.93797
lowerback 14.4552 -4.65798 18.5577
upperback 3.49252 -3.4342 -1.62881
thorax -5.45299 -1.93793 -11.6692
lowerneck -13.2597 0.195905 -8.9264
upperneck 28.9103 11.1294 -25.5612
head 13.8202 1.1099 -7.05619
rclavicle 5.52621e-014 4.77083e-014
rhumerus -43.6379 19.8694 -106.799
rradius 46.8308
rwrist 14.724
rhand -0.642951 -58.0246
rfingers 7.12502
rthumb 24.9744 -86.4124
lclavicle 5.52621e-014 4.77083e-014
lhumerus -39.219 -24.3228 97.8116
lradius 49.5838
lwrist -6.91248
lhand 21.6069 -8.3767
lfingers 7.12502
lthumb 46.029 14.7057
rfemur 0 0 0
rtibia 0
rfoot 0 0
rtoes 0
lfemur -5.655 -0.476778 -19.3115
ltibia 20.729
lfoot -8.38293 -5.51633
ltoes -56.3477
703
root -1.36026 18.7402 6.56828 1.90643 16.0761 7.85594
lowerback 14.6679 -4.62273 18.4308
upperback 3.64554 -3.38584 -1.79542
thorax -5.38456 -1.89687 -11.7978
lowerneck -13.2461 0.00535947 -9.12661
upperneck 29.1215 10.9201 -25.4138
head 13.8639 0.9914 -7.0105
rclavicle -1.59028e-015 -1.90833e-014
rhumerus -43.3646 20.0409 -106.985
rradius 46.4761
rwrist 14.5945
rhand -0.743754 -57.7296
rfingers 7.12502
rthumb 24.8778 -86.1308
lclavicle -1.59028e-015 -1.90833e-014
lhumerus -39.3596 -24.4798 97.6263
lradius 50.3694
lwrist -6.69244
lhand 21.7173 -7.73141
lfingers 7.12502
lthumb 46.1314 15.3082
rfemur 0 0 0
rtibia 0
rfoot 0 0
rtoes 0
lfemur -5.48626 -0.592382 -19.1765
ltibia 20.7662
lfoot -8.43237 -5.4988
ltoes -56.4633
704
root -1.3784 18.7377 6.56411 1.79265 16.2302 7.81439
lowerback 14.8435 -4.59806 18.2464
upperback 3.75957 -3.36411 -1.94662
thorax -5.34553 -1.87351 -11.8693
lowerneck -13.2508 -0.115765 -9.35037
upperneck 29.3164 10.7982 -25.1995
head 13.909 0.915742 -6.9146
rclavicle 2.26615e-014 2.38542e-014
rhumerus -43.119 20.1326 -107.121
rradius 46.1721
rwrist 14.7131
rhand -0.6337 -57.6439
rfingers 7.12502
rthumb 24.9833 -86.0305
lclavicle 2.26615e-014 2.38542e-014
lhumerus -39.5373 -24.5926 97.4616
lradius 51.2015
lwrist -6.54384
lhand 21.702 -7.24347
lfingers 7.12502
lthumb 46.1172 15.8021
rfemur 0 0 0
rtibia 0
rfoot 0 0
rtoes 0
lfemur -5.43499 -0.67898 -19.0799
ltibia 20.7999
lfoot -8.4047 -5.52407
ltoes -56.4383
705
root -1.39555 18.7335 6.56304 1.58875 16.3238 7.70053
lowerback 15.0862 -4.55506 18.0902
upperback 3.88306 -3.3003 -2.08301
thorax -5.31849 -1.82989 -11.9482
lowerneck -13.2179 -0.222131 -9.46039
upperneck 29.523 10.685 -25.05
head 13.962 0.852569 -6.86798
rclavicle 1.19271e-014 -7.95139e-015
rhumerus -42.9103 20.1059 -107.176
rradius 45.9638
rwrist 15.3627
rhand 0.250597 -57.5207
rfingers 7.12502
rthumb 25.8304 -85.7868
lclavicle 1.19271e-014 -7.95139e-015
lhumerus -39.7324 -24.7032 97.3154
lradius 51.9799
lwrist -6.39441
lhand 21.6849 -6.8227
lfingers 7.12502
lthumb 46.1014 16.2295
rfemur 0 0 0
rtibia 0
rfoot 0 0
rtoes 0
lfemur -5.28814 -0.882884 -18.929
ltibia 20.8327
lfoot -8.45787 -5.36315
ltoes -56.4161
